<svg xmlns="http://www.w3.org/2000/svg" viewBox="0 0 24 30"><title>404-note</title><path d="M17.225.2l-.997 1.224.204.166-8.96.36.21-.233L6.504.667 5.278 2.038l-1.074.043.044 1.11L3 4.59l1.178 1.053.162-.182.713 17.733 15.515-.625-.732-18.203.47.384.998-1.225L19.75 2.26l-.03-.802-.907.037L17.225.2zm2.005 1.634l.147-.006.006.13-.153-.124zM4.68 5.08l2.464-2.76 9.705-.39 2.617 2.135.73 18.162-14.802.596L4.68 5.08zm-.106-2.656l.374-.015-.36.4-.014-.386zm8.593 10.26l2.82 2.52-.715.8-2.82-2.518-2.518 2.82-.8-.715 2.516-2.82-2.82-2.517.715-.8 2.82 2.517 2.518-2.82.802.715-2.518 2.82z" fill="#4a4a4a" fill-rule="evenodd"/><text y="39" font-size="5" font-weight="bold" font-family="'Helvetica Neue', Helvetica, Arial-Unicode, Arial, Sans-serif">Created by Eynav Raphael</text><text y="44" font-size="5" font-weight="bold" font-family="'Helvetica Neue', Helvetica, Arial-Unicode, Arial, Sans-serif">from the Noun Project</text></svg>