<svg version="1" xmlns="http://www.w3.org/2000/svg" width="933.333" height="933.333" viewBox="0 0 700.000000 700.000000"><path d="M104 145.7c-28.9 40.5-52.6 74-52.8 74.5-.2.4 23.5.8 52.7.8H157v150.5l85.7 42.8 85.6 42.9 160.6-160.6L649.5 136H371l-53.2 42.5c-43.3 34.7-53.4 42.3-54.4 41.3-.7-.7-24.7-34.2-53.4-74.3-28.7-40.2-52.4-73.1-52.8-73.2-.4-.1-24.3 32.9-53.2 73.4zM387.3 428.2L340 475.5l47.5 75.9c26 41.7 47.6 76.1 47.9 76.4.3.3.6-55.1.6-123.1 0-68.1-.3-123.7-.8-123.7-.4 0-22 21.3-47.9 47.2z"/></svg>